<svg width="24" height="24" viewBox="0 0 24 24" fill="none" xmlns="http://www.w3.org/2000/svg">
<g clip-path="url(#clip0_1287_439087)">
<path d="M12.7206 3.66665C12.6474 3.54037 12.5422 3.43555 12.4157 3.36268C12.2892 3.28982 12.1458 3.25146 11.9998 3.25146C11.8538 3.25146 11.7104 3.28982 11.5839 3.36268C11.4574 3.43555 11.3522 3.54037 11.279 3.66665L7.94563 9.49999C7.87253 9.62661 7.83402 9.77023 7.83398 9.91644C7.83395 10.0626 7.87238 10.2063 7.94542 10.333C8.01846 10.4596 8.12353 10.5648 8.2501 10.638C8.37666 10.7112 8.52026 10.7498 8.66646 10.75H15.3331C15.4793 10.7498 15.6229 10.7112 15.7495 10.638C15.8761 10.5648 15.9811 10.4596 16.0542 10.333C16.1272 10.2063 16.1656 10.0626 16.1656 9.91644C16.1656 9.77023 16.1271 9.62661 16.054 9.49999L12.7206 3.66665Z" stroke="#333333" stroke-linecap="round" stroke-linejoin="round"/>
</g>
<g clip-path="url(#clip1_1287_439087)">
<path d="M12.7206 21.3333C12.6474 21.4596 12.5422 21.5644 12.4157 21.6373C12.2892 21.7102 12.1458 21.7485 11.9998 21.7485C11.8538 21.7485 11.7104 21.7102 11.5839 21.6373C11.4574 21.5644 11.3522 21.4596 11.279 21.3333L7.94563 15.5C7.87253 15.3734 7.83402 15.2298 7.83398 15.0836C7.83395 14.9374 7.87238 14.7937 7.94542 14.667C8.01846 14.5404 8.12353 14.4352 8.2501 14.362C8.37666 14.2888 8.52026 14.2502 8.66646 14.25H15.3331C15.4793 14.2502 15.6229 14.2888 15.7495 14.362C15.8761 14.4352 15.9811 14.5404 16.0542 14.667C16.1272 14.7937 16.1656 14.9374 16.1656 15.0836C16.1656 15.2298 16.1271 15.3734 16.054 15.5L12.7206 21.3333Z" stroke="#333333" stroke-linecap="round" stroke-linejoin="round"/>
</g>
<defs>
<clipPath id="clip0_1287_439087">
<rect width="10" height="10" fill="white" transform="translate(7 2)"/>
</clipPath>
<clipPath id="clip1_1287_439087">
<rect width="10" height="10" fill="white" transform="matrix(1 0 0 -1 7 23)"/>
</clipPath>
</defs>
</svg>
